# xmcd
#
# Track frame offsets:
#	150
#	12375
#	24267
#	37665
#	53795
#	64745
#	80135
#	98802
#	114992
#	125875
#	141822
#	152875
#	170295
#	180647
#	196572
#	220582
#	242585
#	257097
#	263305
#
# Disc length: 3811 seconds
#
# Revision: 0
# Processed by: cddbd v1.5.2PL0 Copyright (c) Steve Scherf et al.
# Submitted via: audiograbber 1.83.01
#
DISCID=f10ee113
DTITLE=Barbra Streisand - Just For The Record - The '70s [CD3]
DYEAR=1991
DGENRE=Vocal
TTITLE0=The Singer
TTITLE1=I Can Do It
TTITLE2=Stoney End
TTITLE3=(They Long To Be) Close To You (from the Burt Bacharach Special) - Barb
TTITLE3=ra Streisand and Burt Bacharach
TTITLE4=We've Only Just Begun
TTITLE5=Since I Fell For You (from ''Barbra Joan Streisand'')
TTITLE6=You're The Top (from ''What's Up Doc?'') - Barbra Streisand and Ryan O'Ne
TTITLE6=al
TTITLE7=What Are You Doing The Rest Of Your Life (Demo - Album Version) - Barbr
TTITLE7=a Streisand and Michael Legrand
TTITLE8=If I Close My Eyes (from ''Up The Sandbox'')
TTITLE9=Between Yesterday And Tomorrow
TTITLE10=Can You Tell The Moment?
TTITLE11=The Way We Were (Soundtrack Version)
TTITLE12=Cryin' Time (from ''Barbra Streisand and Other Musical Instruments'') - 
TTITLE12=Barbra Streisand and Ray Charles
TTITLE13=God Bless The Child
TTITLE14=A Quiet Thing - There Won't Be Trumpets
TTITLE15=Lost Inside Of You (Film Dialogue - Alternate Soundtrack Version - fro
TTITLE15=m ''A Star Is Born'')
TTITLE16=Evergreen (Demo - Soundtrack Version - from ''A Star Is Born'')
TTITLE17=1977 Academy Awards
TTITLE18=Hatikvah (from ''The Stars Salute Israel At 30'') - Barbra Streisand &
TTITLE18=Golda Meir
EXTD=YEAR: 1991
EXTT0=
EXTT1=
EXTT2=
EXTT3=
EXTT4=
EXTT5=
EXTT6=
EXTT7=
EXTT8=
EXTT9=
EXTT10=
EXTT11=
EXTT12=
EXTT13=
EXTT14=
EXTT15=
EXTT16=
EXTT17=
EXTT18=
PLAYORDER=
